<svg xmlns="http://www.w3.org/2000/svg" version="1.1" xmlns:xlink="http://www.w3.org/1999/xlink" xmlns:svgjs="http://svgjs.dev/svgjs" width="2000" height="2000" viewBox="0 0 2000 2000"><g transform="matrix(1,0,0,1,-0.9999999999998863,-0.9999999999998863)"><svg viewBox="0 0 280 280" data-background-color="#3f3f40" preserveAspectRatio="xMidYMid meet" height="2000" width="2000" xmlns="http://www.w3.org/2000/svg" xmlns:xlink="http://www.w3.org/1999/xlink"><g id="tight-bounds" transform="matrix(1,0,0,1,0.13999999999998636,0.13999999999998636)"><svg viewBox="0 0 279.72 279.72" height="279.72" width="279.72"><g><svg viewBox="0 0 279.72 279.72" height="279.72" width="279.72"><g><svg viewBox="0 0 279.72 279.72" height="279.72" width="279.72"><g id="textblocktransform"><svg viewBox="0 0 279.72 279.72" height="279.72" width="279.72" id="textblock"><g><svg viewBox="0 0 279.72 279.72" height="279.72" width="279.72"><g transform="matrix(1,0,0,1,98.39358547431999,73.92936372216631)"><svg viewBox="0 0 82.93282905136005 131.8612725556674" height="131.8612725556674" width="82.93282905136005"><g id="icon-0"><svg xmlns="http://www.w3.org/2000/svg" xmlns:xlink="http://www.w3.org/1999/xlink" version="1.1" x="0" y="0" viewBox="0 0 62.894000220078716 100" enable-background="new 0 0 62.895 100" xml:space="preserve" width="82.93282905136005" height="131.8612725556674" class="icon-xg-0" data-fill-palette-color="accent" id="xg-0"><path fill="#ffffff" d="M55.303 0H7.591C3.406 0 0 3.403 0 7.589v84.822C0 96.597 3.406 100 7.591 100h47.711c4.186 0 7.592-3.403 7.592-7.589V7.589C62.895 3.403 59.488 0 55.303 0zM58.317 92.411c0 1.66-1.352 3.012-3.015 3.012H7.591c-1.663 0-3.015-1.352-3.015-3.012v-3.015h53.741V92.411zM58.317 84.819H4.577V15.181h53.741V84.819zM58.317 10.604H4.577V7.589c0-1.661 1.352-3.013 3.015-3.013h47.711c1.663 0 3.015 1.352 3.015 3.013V10.604z" data-fill-palette-color="accent"></path><path fill="#ffffff" d="M20.2 56.813c-0.085 0.477-0.143 0.964-0.143 1.464 0 4.541 3.696 8.235 8.237 8.235h8.057 9.518c5.35 0 9.703-4.352 9.703-9.699 0-5.352-4.354-9.705-9.703-9.705-0.103 0-0.203 0.002-0.307 0.004-2.201-2.731-5.546-4.398-9.211-4.398-0.311 0-0.61 0.049-0.917 0.074-2.354-3.784-6.914-5.761-11.332-4.724-2.749 0.637-5.082 2.306-6.572 4.7-1.491 2.393-1.96 5.225-1.321 7.971C16.785 53.214 18.207 55.339 20.2 56.813zM36.351 47.292c3.267 0 6.005 2.159 6.943 5.109 0.762-0.442 1.633-0.716 2.574-0.716 2.831 0 5.126 2.298 5.126 5.129 0 2.827-2.295 5.122-5.126 5.122-1.766 0-7.441 0-9.518 0-1.878 0-6.68 0-8.057 0-2.02 0-3.66-1.638-3.66-3.658 0-2.024 1.64-3.663 3.66-3.663 0.255 0 0.503 0.025 0.742 0.076 0-0.028-0.009-0.051-0.009-0.076C29.027 50.572 32.305 47.292 36.351 47.292zM21.413 45.184c0.845-1.356 2.166-2.302 3.723-2.664 2.072-0.483 4.186 0.179 5.609 1.616-2.599 1.396-4.633 3.718-5.625 6.539-1.059 0.442-1.998 1.11-2.78 1.929-0.809-0.787-1.41-1.77-1.676-2.905C20.303 48.143 20.568 46.539 21.413 45.184z" data-fill-palette-color="accent"></path><path fill="#ffffff" d="M9.509 45.575l2.968 0.9c0.221 0.067 0.445 0.099 0.664 0.099 0.983 0 1.891-0.637 2.19-1.625 0.366-1.209-0.315-2.487-1.526-2.854l-2.968-0.9c-1.211-0.369-2.487 0.319-2.854 1.526C7.616 43.931 8.298 45.208 9.509 45.575z" data-fill-palette-color="accent"></path><path fill="#ffffff" d="M36.684 41.099c0.561 0 1.124-0.206 1.564-0.619l2.264-2.121c0.923-0.863 0.97-2.311 0.104-3.234-0.862-0.92-2.312-0.968-3.233-0.105l-2.264 2.121c-0.923 0.863-0.97 2.311-0.105 3.234C35.463 40.855 36.073 41.099 36.684 41.099z" data-fill-palette-color="accent"></path><path fill="#ffffff" d="M14.738 56.21l-2.262 2.121c-0.923 0.865-0.97 2.313-0.105 3.233 0.451 0.48 1.059 0.725 1.669 0.725 0.561 0 1.124-0.206 1.564-0.619l2.262-2.121c0.923-0.864 0.97-2.312 0.105-3.233S15.657 55.348 14.738 56.21z" data-fill-palette-color="accent"></path><path fill="#ffffff" d="M21.103 35.271c0.244 1.057 1.187 1.77 2.226 1.77 0.172 0 0.346-0.018 0.521-0.06 1.231-0.284 1.996-1.515 1.709-2.747l-0.702-3.021c-0.284-1.231-1.515-2.007-2.747-1.709-1.231 0.284-1.996 1.515-1.709 2.747L21.103 35.271z" data-fill-palette-color="accent"></path></svg></g></svg></g><g id="text-0"><path d="M13.496 88.429l-0.733-0.267 2.243-6.154 0.734 0.268-0.073 2.392 18.895 6.89-0.609 1.67-21.788 7.849 15.211 5.546 1.682-2.247 0.733 0.268-2.284 6.264-0.733-0.267 0.125-2.709-17.828-6.501-1.271 2.533-0.706-0.257 1.818-4.984 20.327-7.214-14.181-5.171z" fill="#ffffff" data-fill-palette-color="primary"></path><path d="M41.19 80.325c-1.137 1.914-2.702 3.071-4.695 3.472-1.995 0.392-4.06-0.046-6.194-1.314-2.134-1.268-3.486-2.907-4.055-4.915-0.563-2.005-0.288-3.944 0.826-5.817 1.114-1.874 2.368-3.024 3.764-3.452 1.395-0.427 2.846-0.193 4.351 0.702v0c0.442 0.262 0.864 0.563 1.268 0.902v0l-5.344 8.994 0.976 0.58c2.078 1.235 3.828 1.873 5.252 1.914 1.418 0.038 2.528-0.619 3.332-1.972v0c1.137-1.914 1.18-3.887 0.13-5.922v0c0.372-0.33 0.689-0.418 0.949-0.263v0c0.464 0.276 0.748 1.023 0.851 2.241v0c0.058 0.586-0.029 1.312-0.26 2.178-0.229 0.875-0.613 1.766-1.151 2.672zM33.032 71.293v0c-0.855-0.508-1.694-0.765-2.517-0.772v0c-1.107-0.007-1.98 0.528-2.62 1.604v0c-1.191 2.004-0.436 4.035 2.264 6.091v0l3.755-6.318c-0.293-0.228-0.587-0.43-0.882-0.605z" fill="#ffffff" data-fill-palette-color="primary"></path><path d="M34.497 62.558l-0.571-0.518 4.481-4.938 0.549 0.498-1.244 1.753 11.486 4.219-3.671-7.186-3.878-1.371-1.007 0.874-0.621-0.564 4.394-4.843 0.549 0.498-1.27 1.782 11.511 4.19-5.359-10.293-1.868 1.146-0.622-0.564 3.658-4.031 0.622 0.564-0.874 1.875 6.925 13.728-0.87 0.958-9.59-3.367 4.452 9.029-0.87 0.959-15.168-5.321z" fill="#ffffff" data-fill-palette-color="primary"></path><path d="M68.868 48.432v0c0.679-0.532 1.123-1.182 1.333-1.949 0.21-0.767-0.033-1.594-0.728-2.481v0c-0.463-0.591-1.119-0.872-1.966-0.842-0.839 0.03-1.781 0.2-2.827 0.509-1.046 0.31-1.758 0.512-2.135 0.608-0.381 0.09-0.917 0.171-1.606 0.242v0c-1.273 0.095-2.322-0.384-3.147-1.436-0.825-1.052-1.095-2.255-0.809-3.608 0.29-1.349 1.232-2.649 2.828-3.901v0c1.021-0.801 2.068-1.258 3.142-1.373 1.075-0.123 1.86 0.131 2.357 0.764 0.492 0.627 0.593 1.247 0.303 1.858v0c-0.16 0.318-0.365 0.575-0.614 0.771-0.249 0.195-0.53 0.332-0.845 0.411v0c-0.172-0.359-0.399-0.717-0.679-1.074-0.276-0.352-0.64-0.64-1.092-0.864v0c-0.77-0.384-1.561-0.257-2.375 0.382-0.819 0.642-1.268 1.35-1.347 2.124-0.079 0.774 0.161 1.518 0.722 2.233v0c0.573 0.731 1.306 1.035 2.197 0.913v0c0.689-0.072 1.464-0.257 2.326-0.556 0.866-0.294 1.46-0.492 1.782-0.594 0.317-0.098 0.767-0.196 1.351-0.294 0.584-0.098 1.071-0.107 1.46-0.028v0c0.98 0.161 1.856 0.733 2.628 1.718 0.772 0.985 0.986 2.169 0.64 3.553-0.34 1.38-1.148 2.57-2.423 3.57-1.275 1-2.544 1.681-3.807 2.045-1.273 0.362-2.202 0.17-2.787-0.576v0c-0.549-0.7-0.39-1.565 0.475-2.596v0c1.891 1.781 3.772 1.938 5.643 0.471z" fill="#ffffff" data-fill-palette-color="primary"></path><path d="M103.866 29.57l0.31 0.716-8.026 3.466-0.271-0.625 2.169-1.357-5.574-5.706-6.693 2.891 0.24 7.407 2.981-0.373 0.31 0.717-6.222 2.686-0.309-0.716 1.925-1.746-0.62-21.544 1.46-0.63 15.921 15.538zM85.721 27.668l5.831-2.518-6.042-5.967z" fill="#ffffff" data-fill-palette-color="primary"></path><path d="M107.756 16.675l0.296-0.039c0.382-2.658 2.003-4.321 4.863-4.986v0c1.424-0.332 2.678-0.174 3.762 0.473 1.084 0.647 1.809 1.756 2.174 3.327v0c0.633 2.72 1.317 6.033 2.051 9.939v0l2.21-0.352 0.177 0.76-6.975 1.624-0.177-0.76 1.674-0.521c-0.934-4.793-1.481-7.536-1.643-8.229-0.161-0.693-0.298-1.222-0.41-1.588-0.104-0.361-0.267-0.8-0.489-1.317-0.214-0.511-0.454-0.905-0.721-1.181v0c-0.643-0.669-1.458-0.888-2.446-0.657v0c-1.347 0.314-2.323 1.129-2.929 2.447-0.6 1.316-0.748 2.625-0.445 3.927v0l1.918 8.236 2.403-0.398 0.177 0.761-7.543 1.756-0.177-0.76 2.052-0.64-3.108-13.345-2.713 0.5-0.171-0.731 5.561-1.69z" fill="#ffffff" data-fill-palette-color="primary"></path><path d="M138.526 19.985v0l-0.442-8.899c-1.079-0.744-2.385-1.078-3.917-1.002v0c-1.914 0.095-3.19 0.95-3.829 2.564v0c-0.512 1.364-0.711 3.2-0.597 5.509v0c0.222 4.466 1.54 6.639 3.954 6.519v0c1.362-0.068 2.516-0.646 3.465-1.735 0.955-1.083 1.411-2.068 1.366-2.956zM133.133 25.703v0c-1.855 0.092-3.453-0.491-4.795-1.75-1.336-1.266-2.069-3.22-2.2-5.864-0.131-2.644 0.535-4.768 1.998-6.37 1.47-1.609 3.487-2.478 6.052-2.606v0c1.335-0.066 2.614 0.183 3.835 0.749v0l-0.405-8.149-2.858 0.003-0.066-0.738 5.945-0.978 1.195 24.044 2.759-0.008 0.076 0.738-5.713 0.67-0.085-3.102-0.197 0.01c-0.472 0.993-1.22 1.785-2.246 2.376-1.032 0.592-2.13 0.917-3.295 0.975z" fill="#ffffff" data-fill-palette-color="primary"></path><path d="M159.213 5.134l0.184-0.657 8.43 2.352-0.183 0.656-2.582-0.412 1.255 17.6 7.66-10.109-0.456-5.132-2.318-0.954 0.183-0.657 8.421 2.349-0.183 0.656-2.573-0.409 1.246 17.597 10.219-13.733-2.524-1.576 0.21-0.752 6.527 1.821-0.21 0.751-2.615 0.184-12.996 17.327-1.408-0.392-1.363-15.118-9.218 12.167-1.399-0.391-1.979-22.211z" fill="#ffffff" data-fill-palette-color="primary"></path><path d="M193.263 38.273c-1.992-0.994-3.261-2.47-3.807-4.429-0.538-1.961-0.252-4.052 0.857-6.274 1.109-2.222 2.644-3.689 4.604-4.403 1.958-0.708 3.912-0.576 5.863 0.397 1.95 0.973 3.19 2.14 3.718 3.501 0.528 1.36 0.401 2.824-0.381 4.392v0c-0.229 0.46-0.499 0.903-0.808 1.33v0l-9.36-4.671-0.507 1.016c-1.079 2.163-1.587 3.955-1.525 5.378 0.066 1.417 0.803 2.476 2.211 3.179v0c1.992 0.994 3.963 0.892 5.916-0.305v0c0.357 0.347 0.467 0.656 0.332 0.927v0c-0.241 0.483-0.965 0.821-2.173 1.014v0c-0.58 0.101-1.311 0.067-2.192-0.1-0.89-0.164-1.806-0.482-2.748-0.952zM201.672 29.475v0c0.444-0.89 0.639-1.746 0.586-2.567v0c-0.074-1.104-0.671-1.936-1.791-2.495v0c-2.086-1.041-4.056-0.14-5.909 2.704v0l6.576 3.282c0.206-0.309 0.385-0.617 0.538-0.924z" fill="#ffffff" data-fill-palette-color="primary"></path><path d="M207.24 42.148v0c-0.819 1.139-0.842 2.145-0.067 3.018v0c0.175 0.207 0.359 0.38 0.552 0.519v0c0.663 0.477 1.559 0.692 2.688 0.645 1.128-0.056 2.057-0.552 2.787-1.488v0l1.627-2.261c-3.492-2.465-6.021-2.609-7.587-0.433zM206.023 46.055v0c-1-0.719-1.657-1.61-1.972-2.673-0.315-1.062-0.112-2.093 0.607-3.092v0c0.989-1.341 2.393-1.86 4.212-1.558 1.823 0.297 3.979 1.342 6.471 3.135v0l1.627-2.261c1.6-2.224 1.593-3.916-0.021-5.078v0c-0.823-0.592-1.735-0.729-2.735-0.41v0c-0.691 0.217-1.289 0.675-1.793 1.375v0c-0.215 0.299-0.408 0.64-0.577 1.021v0c-0.367 0.003-0.68-0.087-0.936-0.272-0.257-0.185-0.467-0.417-0.63-0.697v0c-0.411-0.612-0.403-1.215 0.023-1.809v0c0.581-0.807 1.35-1.268 2.309-1.381v0c1.562-0.174 3.174 0.337 4.836 1.533 1.668 1.2 2.625 2.424 2.871 3.672 0.242 1.253-0.187 2.644-1.288 4.174v0l-5.729 7.962 2.129 1.691-0.406 0.632-4.619-2.849 1.452-2.509c-1.942 0.996-3.886 0.794-5.831-0.606z" fill="#ffffff" data-fill-palette-color="primary"></path><path d="M226.498 58.322v0c-0.045 0.048-0.104 0.096-0.178 0.144v0c-0.982 0.53-1.985 0.747-3.007 0.649-1.027-0.093-1.933-0.51-2.718-1.252-0.785-0.742-1.229-1.585-1.335-2.528-0.096-0.943 0.472-2.065 1.703-3.366v0c0.339-0.359 2.849-2.934 7.529-7.727v0l-1.622-1.535 0.577-0.61 1.644 1.555 3.301-3.431 2.303 2.179-3.344 3.391 3.365 3.184-0.577 0.61-3.365-3.184c-4.87 4.993-7.715 7.923-8.534 8.789v0c-0.991 1.048-1.143 1.897-0.454 2.549v0c0.421 0.398 1.092 0.575 2.013 0.531 0.926-0.049 1.772-0.291 2.538-0.727v0c0.316 0.299 0.369 0.558 0.161 0.779z" fill="#ffffff" data-fill-palette-color="primary"></path><path d="M245.208 61.38v0c2.134 2.72 1.892 5.107-0.724 7.159v0c-1.886 1.479-4.583 3.499-8.092 6.059v0l1.296 1.908-0.614 0.482-4.463-5.69 0.614-0.482 1.18 1.297c4.581-3.401 7.351-5.477 8.31-6.229 0.959-0.752 1.538-1.491 1.738-2.217 0.196-0.731-0.049-1.535-0.736-2.411-0.687-0.876-1.748-1.37-3.184-1.482-1.432-0.107-2.495 0.111-3.189 0.655v0l-7.47 5.859 1.193 1.777-0.614 0.482-4.597-5.861 0.614-0.482 1.441 1.582 17.559-13.773-1.647-2.324 0.565-0.48 4.273 4.344c-5.911 4.469-9.067 6.848-9.467 7.137v0l0.158 0.202c1.144-0.153 2.226-0.005 3.247 0.442 1.02 0.447 1.89 1.129 2.609 2.046z" fill="#ffffff" data-fill-palette-color="primary"></path><path d="M242.058 86.47c-1.082-1.946-1.294-3.88-0.639-5.805 0.665-1.922 2.082-3.486 4.253-4.692 2.17-1.206 4.266-1.55 6.287-1.031 2.016 0.522 3.553 1.736 4.612 3.641 1.059 1.905 1.422 3.568 1.089 4.989-0.333 1.421-1.265 2.557-2.796 3.408v0c-0.449 0.25-0.922 0.463-1.417 0.641v0l-5.083-9.144-0.993 0.552c-2.112 1.174-3.545 2.366-4.297 3.576-0.746 1.206-0.737 2.497 0.028 3.872v0c1.082 1.946 2.766 2.976 5.052 3.091v0c0.098 0.488 0.015 0.806-0.25 0.953v0c-0.472 0.262-1.26 0.132-2.365-0.392v0c-0.535-0.245-1.119-0.685-1.751-1.321-0.641-0.638-1.218-1.418-1.73-2.338zM253.968 83.963v0c0.869-0.483 1.514-1.079 1.933-1.787v0c0.563-0.953 0.54-1.977-0.068-3.07v0c-1.133-2.038-3.267-2.407-6.403-1.109v0l3.571 6.424c0.345-0.139 0.667-0.292 0.967-0.458z" fill="#ffffff" data-fill-palette-color="primary"></path><path d="M265.777 99.605v0c0.196 0.524 0.224 0.985 0.084 1.382-0.138 0.403-0.432 0.689-0.881 0.857v0c-0.765 0.286-1.377 0.181-1.837-0.315v0c0.137-0.424 0.046-1.061-0.272-1.913-0.316-0.845-0.898-1.556-1.746-2.131-0.846-0.57-1.623-0.722-2.333-0.457v0l-9.013 3.369 0.873 2.785-0.731 0.273-2.882-7.708 0.731-0.273 0.871 1.963 12.955-4.843-0.776-2.441 0.703-0.263 2.34 5.242-3.808 1.213 0.049 0.129c1.219-0.069 2.387 0.215 3.503 0.852 1.115 0.631 1.838 1.391 2.17 2.279z" fill="#ffffff" data-fill-palette-color="primary"></path><path d="M6.032 141.908c0-5.236 4.244-9.48 9.48-9.481 5.236 0 9.48 4.244 9.48 9.481 0 5.236-4.244 9.48-9.48 9.48-5.236 0-9.48-4.244-9.48-9.48z" fill="#ffffff" data-fill-palette-color="primary"></path><path d="M254.728 141.908c0-5.236 4.244-9.48 9.48-9.481 5.236 0 9.48 4.244 9.48 9.481 0 5.236-4.244 9.48-9.48 9.48-5.236 0-9.48-4.244-9.48-9.48z" fill="#ffffff" data-fill-palette-color="primary"></path></g><g id="text-1"><path d="M32.307 171.127l2.778 8.258c0.792 2.353 0.985 4.189 0.581 5.506-0.398 1.315-1.3 2.209-2.705 2.682-1.398 0.47-2.638 0.471-3.72 0.001-1.076-0.472-1.934-1.403-2.576-2.792v0c0.305 2.003 0.209 3.564-0.29 4.683-0.499 1.12-1.469 1.922-2.911 2.407v0c-1.791 0.603-3.367 0.309-4.726-0.88-1.365-1.187-2.444-2.958-3.235-5.311v0l-2.57-7.641 0.702-0.236 0.996 2.094 17.565-5.909-0.591-2.626zM25.46 183.988v0c-0.092-0.789-0.256-1.536-0.493-2.241-0.235-0.699-0.44-1.266-0.614-1.701v0l-8.839 2.973c0.024 0.527 0.104 0.99 0.239 1.39 0.134 0.399 0.326 0.867 0.575 1.401 0.243 0.537 0.619 1.126 1.126 1.768 0.508 0.642 1.223 1.075 2.147 1.3 0.919 0.233 1.934 0.162 3.045-0.212v0c2.16-0.727 3.098-2.286 2.814-4.678zM34.043 178.892l-0.636-1.892-8.174 2.75 0.41 1.217c1.107 3.29 3.158 4.43 6.154 3.423v0c1.305-0.439 2.132-1.089 2.481-1.95 0.347-0.867 0.269-2.05-0.235-3.548z" fill="#ffffff" data-fill-palette-color="secondary"></path><path d="M23.711 205.453c-0.98-1.873-1.134-3.714-0.461-5.524 0.67-1.815 2.05-3.269 4.14-4.363 2.095-1.096 4.096-1.37 6.002-0.822 1.904 0.542 3.337 1.732 4.3 3.57 0.959 1.832 1.262 3.42 0.91 4.764-0.352 1.344-1.264 2.401-2.734 3.17v0c-0.438 0.229-0.895 0.42-1.373 0.574v0l-4.608-8.805-0.954 0.499c-2.036 1.066-3.424 2.164-4.163 3.294-0.742 1.124-0.765 2.352-0.069 3.682v0c0.98 1.873 2.553 2.89 4.718 3.05v0c0.088 0.467 0.004 0.767-0.253 0.901v0c-0.455 0.238-1.202 0.097-2.239-0.422v0c-0.502-0.25-1.047-0.686-1.633-1.309-0.589-0.614-1.117-1.367-1.583-2.26zM35.081 203.36v0c0.84-0.44 1.471-0.989 1.891-1.648v0c0.552-0.891 0.552-1.865-0.001-2.921v0c-1.029-1.966-3.047-2.371-6.054-1.213v0l3.243 6.197c0.328-0.127 0.634-0.265 0.921-0.415z" fill="#ffffff" data-fill-palette-color="secondary"></path><path d="M40.62 224.083v0c-1.014 0.872-1.259 1.799-0.734 2.781v0c0.113 0.233 0.243 0.434 0.388 0.604v0c0.507 0.589 1.29 0.984 2.349 1.186 1.054 0.205 2.021-0.044 2.9-0.749v0l2.008-1.726c-2.679-3.055-4.983-3.754-6.911-2.096zM38.624 227.428v0c-0.764-0.889-1.172-1.858-1.224-2.908-0.052-1.05 0.367-1.957 1.256-2.722v0c1.211-1.016 2.623-1.182 4.234-0.5 1.615 0.687 3.372 2.134 5.27 4.34v0l2.007-1.726c1.977-1.7 2.35-3.267 1.118-4.7v0c-0.627-0.729-1.436-1.058-2.427-0.988v0c-0.695 0.05-1.352 0.342-1.971 0.874v0c-0.265 0.228-0.516 0.5-0.755 0.819v0c-0.349-0.082-0.62-0.236-0.813-0.461-0.193-0.225-0.337-0.488-0.431-0.789v0c-0.24-0.663-0.097-1.219 0.427-1.67v0c0.719-0.618 1.532-0.87 2.439-0.755v0c1.485 0.182 2.864 1.012 4.134 2.49 1.275 1.483 1.886 2.83 1.832 4.04-0.054 1.21-0.76 2.399-2.118 3.567v0l-7.07 6.08 1.591 2.032-0.52 0.486-3.626-3.656 1.894-1.994c-2.012 0.488-3.761-0.131-5.247-1.859z" fill="#ffffff" data-fill-palette-color="secondary"></path><path d="M53.954 241.738l-0.503 0.545-5.206-4.802 0.502-0.545 1.597 1.271 14.379-15.591-1.932-1.956 0.482-0.523 4.669 3.433-15.384 16.68z" fill="#ffffff" data-fill-palette-color="secondary"></path><path d="M64.475 232.945l0.415-0.615 5.258 3.546-0.398 0.59-1.817-0.928-2.406 11.377 6.26-4.441 0.765-3.821-0.96-0.838 0.448-0.663 5.151 3.474-0.397 0.59-1.85-0.95-2.373 11.399 8.958-6.446-1.337-1.604 0.447-0.664 4.292 2.894-0.447 0.664-1.89-0.572-11.961 8.389-1.023-0.69 1.864-9.478-7.884 5.418-1.024-0.69 2.934-14.988z" fill="#ffffff" data-fill-palette-color="secondary"></path><path d="M84.372 258.418v0c-0.55 1.219-0.38 2.162 0.511 2.832v0c0.201 0.163 0.404 0.29 0.608 0.382v0c0.708 0.32 1.585 0.347 2.629 0.081 1.042-0.26 1.813-0.895 2.312-1.904v0l1.089-2.414c-3.72-1.635-6.103-1.294-7.149 1.023zM83.979 262.294v0c-1.069-0.482-1.848-1.188-2.34-2.118-0.491-0.93-0.495-1.929-0.013-2.997v0c0.668-1.433 1.876-2.181 3.625-2.244 1.754-0.061 3.958 0.507 6.611 1.704v0l1.089-2.413c1.073-2.377 0.747-3.954-0.975-4.732v0c-0.876-0.395-1.749-0.352-2.617 0.131v0c-0.608 0.34-1.081 0.882-1.417 1.626v0c-0.144 0.318-0.256 0.672-0.338 1.061v0c-0.351 0.073-0.661 0.048-0.931-0.073-0.27-0.122-0.512-0.299-0.724-0.533v0c-0.497-0.499-0.604-1.064-0.32-1.694v0c0.39-0.864 1.02-1.436 1.891-1.716v0c1.423-0.463 3.023-0.294 4.799 0.508 1.783 0.804 2.906 1.766 3.369 2.885 0.463 1.119 0.326 2.495-0.41 4.129v0l-3.835 8.5 2.301 1.168-0.265 0.661-4.833-1.78 0.873-2.608c-1.617 1.294-3.464 1.472-5.54 0.535z" fill="#ffffff" data-fill-palette-color="secondary"></path><path d="M99.678 274.599c-0.527 0.336-1.15 0.6-1.87 0.792-0.719 0.192-1.389 0.2-2.009 0.024-0.621-0.177-1.055-0.479-1.303-0.906-0.256-0.422-0.307-0.906-0.152-1.45 0.155-0.545 0.558-1.022 1.209-1.433v0c0.371 0.79 0.901 1.284 1.592 1.481v0c0.988 0.281 1.959 0.093 2.914-0.567 0.953-0.653 2.027-1.802 3.221-3.448v0l-1.835-15.118-1.459-0.611 0.219-0.77 6.308 1.797-0.219 0.77-2.094-0.402 1.283 11.541 6.485-8.917-2.216-1.237 0.219-0.77 5.691 1.622-0.219 0.769-2.231-0.029-8.744 11.694c-0.613 0.805-1.088 1.426-1.425 1.864-0.337 0.438-0.85 1.014-1.54 1.728-0.682 0.71-1.29 1.235-1.825 1.576z" fill="#ffffff" data-fill-palette-color="secondary"></path><path d="M120.976 272.615v0c0.813 0.126 1.554 0.015 2.222-0.335 0.668-0.356 1.085-1.061 1.248-2.115v0c0.11-0.709-0.117-1.348-0.682-1.916-0.572-0.562-1.304-1.106-2.196-1.631-0.891-0.525-1.495-0.889-1.81-1.091-0.309-0.201-0.709-0.517-1.203-0.946v0c-0.892-0.825-1.24-1.865-1.044-3.122 0.195-1.256 0.855-2.223 1.98-2.901 1.119-0.679 2.631-0.871 4.538-0.575v0c1.217 0.189 2.216 0.621 2.998 1.296 0.776 0.667 1.106 1.375 0.99 2.123-0.117 0.755-0.481 1.228-1.091 1.42v0c-0.328 0.096-0.639 0.121-0.931 0.075-0.293-0.045-0.573-0.152-0.84-0.32v0c0.141-0.351 0.245-0.738 0.31-1.161 0.066-0.423 0.028-0.865-0.113-1.328v0c-0.232-0.782-0.832-1.249-1.802-1.399-0.976-0.152-1.759-0.003-2.349 0.445-0.589 0.448-0.95 1.099-1.083 1.951v0c-0.135 0.872 0.132 1.577 0.802 2.114v0c0.493 0.43 1.121 0.851 1.883 1.262 0.77 0.406 1.292 0.691 1.567 0.853 0.276 0.156 0.637 0.402 1.085 0.739 0.447 0.343 0.769 0.673 0.966 0.989v0c0.524 0.788 0.695 1.771 0.511 2.949-0.183 1.178-0.865 2.095-2.047 2.751-1.182 0.656-2.534 0.866-4.056 0.629-1.523-0.237-2.821-0.675-3.895-1.314-1.073-0.646-1.54-1.416-1.401-2.307v0c0.129-0.833 0.833-1.284 2.109-1.352v0c-0.01 2.464 1.102 3.87 3.334 4.217z" fill="#ffffff" data-fill-palette-color="secondary"></path><path d="M148.685 274.288v0c-3.276 0.254-5.037-1.194-5.282-4.346v0c-0.179-2.311-0.357-5.528-0.531-9.649v0l-2.462 0.072-0.055-0.709 5.43-0.758c0.275 5.408 0.487 9.084 0.639 11.028v0c0.091 1.169 0.375 2.022 0.853 2.559 0.471 0.538 1.216 0.768 2.233 0.689 1.011-0.079 1.922-0.721 2.734-1.927 0.812-1.199 1.184-2.229 1.117-3.089v0l-0.67-8.627-2.56 0.079-0.055-0.709 5.529-0.766 1.103 14.202 2.62-0.074 0.084 0.706-5.497 0.794-0.041-3.336-0.364 0.028c-0.886 2.374-2.494 3.652-4.825 3.833z" fill="#ffffff" data-fill-palette-color="secondary"></path><path d="M166.226 261.113v0l2.039 8.319c1.133 0.502 2.41 0.579 3.83 0.231v0c0.755-0.185 1.368-0.505 1.839-0.96 0.465-0.453 0.796-0.958 0.992-1.514 0.191-0.549 0.276-1.213 0.254-1.995v0c-0.013-1.244-0.24-2.762-0.679-4.553-0.439-1.791-1.081-3.081-1.925-3.871-0.849-0.782-1.83-1.036-2.943-0.764-1.119 0.274-2.017 0.996-2.694 2.166-0.67 1.168-0.908 2.148-0.713 2.941zM170.393 254.834v0c1.65-0.404 3.175-0.171 4.575 0.699 1.394 0.872 2.394 2.549 3.003 5.031 0.608 2.482 0.423 4.619-0.554 6.411-0.971 1.791-2.695 2.99-5.171 3.597v0c-1.292 0.317-2.527 0.314-3.704-0.008v0l1.745 7.119 2.127-0.369 0.176 0.72-6.879 1.686-0.177-0.72 1.817-0.597-4.962-20.245-2.599 0.515-0.169-0.691 5.302-1.645 0.551 2.621 0.269-0.066c0.323-1.008 0.905-1.869 1.746-2.584 0.836-0.713 1.803-1.205 2.904-1.474z" fill="#ffffff" data-fill-palette-color="secondary"></path><path d="M201.773 255.488v0c0.026 0.053 0.049 0.123 0.069 0.208v0c0.147 1.044 0.012 2.006-0.405 2.887-0.423 0.884-1.096 1.553-2.018 2.007-0.922 0.454-1.819 0.569-2.693 0.346-0.876-0.214-1.692-1.087-2.445-2.617v0c-0.21-0.425-1.673-3.515-4.389-9.268v0l-1.906 0.938-0.353-0.717 1.932-0.952-1.973-4.072 2.703-1.331 1.919 4.098 3.953-1.947 0.353 0.718-3.952 1.947c2.842 5.993 4.512 9.494 5.009 10.504v0c0.608 1.235 1.317 1.653 2.127 1.254v0c0.496-0.244 0.875-0.787 1.136-1.628 0.264-0.835 0.328-1.667 0.191-2.495v0c0.366-0.18 0.613-0.141 0.742 0.12z" fill="#ffffff" data-fill-palette-color="secondary"></path><path d="M215.891 241.195c1.257 1.901 1.718 3.846 1.383 5.836-0.329 1.986-1.482 3.633-3.46 4.941-1.978 1.308-3.947 1.726-5.909 1.254-1.962-0.471-3.571-1.658-4.828-3.559-1.257-1.901-1.72-3.849-1.389-5.843 0.335-1.99 1.491-3.638 3.469-4.946 1.978-1.308 3.945-1.724 5.901-1.249 1.965 0.477 3.576 1.666 4.833 3.566zM205.879 247.815v0c2.612 3.95 5.12 5.129 7.526 3.539 2.406-1.591 2.304-4.361-0.308-8.312v0c-1.268-1.917-2.51-3.2-3.728-3.847-1.218-0.648-2.478-0.541-3.779 0.32-1.302 0.861-1.896 1.98-1.783 3.358 0.113 1.378 0.804 3.025 2.072 4.942z" fill="#ffffff" data-fill-palette-color="secondary"></path><path d="M236.587 224.857v0l-6.256-5.704c-1.221 0.215-2.321 0.86-3.302 1.936v0c-1.233 1.353-1.526 2.784-0.879 4.292v0c0.571 1.27 1.668 2.643 3.289 4.121v0c3.139 2.862 5.483 3.443 7.031 1.745v0c0.874-0.959 1.27-2.122 1.188-3.489-0.091-1.366-0.448-2.333-1.071-2.901zM236.785 232.323v0c-1.189 1.304-2.659 1.978-4.409 2.022-1.751 0.044-3.553-0.78-5.408-2.47-1.859-1.695-2.832-3.575-2.918-5.641-0.091-2.07 0.686-4.008 2.333-5.814v0c0.856-0.939 1.885-1.623 3.086-2.052v0l-5.73-5.224-1.919 1.914-0.545-0.458 3.365-4.645 16.9 15.407 1.852-1.84 0.545 0.443-3.396 4.283-2.143-2.034-0.12 0.131c0.349 0.986 0.373 2.025 0.074 3.116-0.299 1.091-0.822 2.045-1.567 2.862z" fill="#ffffff" data-fill-palette-color="secondary"></path><path d="M245.304 215.859v0c1.116 0.736 2.075 0.718 2.877-0.054v0c0.193-0.173 0.351-0.352 0.474-0.539v0c0.428-0.649 0.594-1.51 0.498-2.584-0.091-1.07-0.595-1.932-1.514-2.585v0l-2.209-1.458c-2.205 3.413-2.247 5.82-0.126 7.22zM249.068 216.864v0c-0.646 0.978-1.466 1.636-2.462 1.973-0.996 0.337-1.983 0.183-2.961-0.463v0c-1.308-0.887-1.855-2.199-1.64-3.935 0.218-1.742 1.129-3.827 2.732-6.257v0l-2.21-1.458c-2.177-1.436-3.786-1.366-4.826 0.212v0c-0.53 0.803-0.625 1.671-0.287 2.604v0c0.239 0.655 0.699 1.207 1.381 1.657v0c0.291 0.192 0.623 0.36 0.994 0.502v0c0.016 0.358-0.057 0.661-0.221 0.908-0.163 0.247-0.377 0.458-0.641 0.63v0c-0.572 0.412-1.146 0.427-1.723 0.047v0c-0.792-0.522-1.256-1.235-1.393-2.139v0c-0.232-1.478 0.189-3.031 1.263-4.658 1.077-1.633 2.205-2.589 3.384-2.868 1.179-0.28 2.516 0.074 4.01 1.06v0l7.784 5.137 1.519-2.087 0.61 0.367-2.524 4.489-2.437-1.277c1.02 1.802 0.903 3.653-0.352 5.556z" fill="#ffffff" data-fill-palette-color="secondary"></path><path d="M257.625 194.553v0c0.053 0.026 0.114 0.067 0.181 0.123v0c0.751 0.739 1.229 1.585 1.434 2.538 0.201 0.959 0.074 1.899-0.382 2.821-0.456 0.921-1.098 1.558-1.927 1.912-0.826 0.363-2.004 0.166-3.532-0.59v0c-0.425-0.21-3.465-1.773-9.121-4.689v0l-0.941 1.904-0.718-0.355 0.955-1.93-4.042-2.033 1.336-2.7 4.016 2.086 1.954-3.95 0.717 0.355-1.954 3.949c5.9 3.029 9.355 4.793 10.365 5.293v0c1.234 0.61 2.051 0.511 2.451-0.297v0c0.245-0.496 0.216-1.157-0.088-1.984-0.298-0.823-0.753-1.522-1.366-2.097v0c0.181-0.366 0.401-0.485 0.662-0.356z" fill="#ffffff" data-fill-palette-color="secondary"></path><path d="M264.889 185.087c-0.706 1.993-1.951 3.357-3.736 4.094-1.787 0.743-3.791 0.721-6.013-0.066-2.228-0.79-3.791-2.07-4.686-3.841-0.898-1.764-1-3.624-0.308-5.579 0.691-1.949 1.648-3.252 2.873-3.908 1.225-0.656 2.619-0.707 4.184-0.153v0c0.466 0.165 0.917 0.37 1.354 0.616v0l-3.32 9.367 1.015 0.36c2.166 0.768 3.915 1.038 5.246 0.811 1.329-0.221 2.244-1.039 2.746-2.454v0c0.706-1.993 0.382-3.837-0.974-5.533v0c0.282-0.382 0.56-0.525 0.833-0.428v0c0.484 0.172 0.889 0.814 1.214 1.929v0c0.159 0.538 0.209 1.234 0.151 2.087-0.049 0.849-0.242 1.748-0.579 2.698zM255.621 178.176v0c-0.894-0.317-1.725-0.405-2.495-0.266v0c-1.029 0.201-1.742 0.864-2.14 1.988v0c-0.741 2.092 0.335 3.846 3.229 5.263v0l2.336-6.593c-0.316-0.154-0.626-0.285-0.93-0.392z" fill="#ffffff" data-fill-palette-color="secondary"></path></g></svg></g></svg></g></svg></g><g></g></svg></g><defs></defs></svg><rect width="279.72" height="279.72" fill="none" stroke="none" visibility="hidden"></rect></g></svg></g></svg>