<svg xmlns="http://www.w3.org/2000/svg" version="1.1" xmlns:xlink="http://www.w3.org/1999/xlink" xmlns:svgjs="http://svgjs.dev/svgjs" width="2000" height="1500" viewBox="0 0 2000 1500"><rect width="2000" height="1500" fill="#000000"></rect><g transform="matrix(0.75,0,0,0.75,249.2500000000001,-0.7499999999998863)"><svg viewBox="0 0 280 280" data-background-color="#3f3f40" preserveAspectRatio="xMidYMid meet" height="2000" width="2000" xmlns="http://www.w3.org/2000/svg" xmlns:xlink="http://www.w3.org/1999/xlink"><g id="tight-bounds" transform="matrix(1,0,0,1,0.13999999999998636,0.13999999999998636)"><svg viewBox="0 0 279.72 279.72" height="279.72" width="279.72"><g><svg viewBox="0 0 279.72 279.72" height="279.72" width="279.72"><g><svg viewBox="0 0 279.72 279.72" height="279.72" width="279.72"><g id="textblocktransform"><svg viewBox="0 0 279.72 279.72" height="279.72" width="279.72" id="textblock"><g><svg viewBox="0 0 279.72 279.72" height="279.72" width="279.72"><g transform="matrix(1,0,0,1,98.39358547431999,73.92936372216631)"><svg viewBox="0 0 82.93282905136005 131.8612725556674" height="131.8612725556674" width="82.93282905136005"><g id="icon-0"><svg xmlns="http://www.w3.org/2000/svg" xmlns:xlink="http://www.w3.org/1999/xlink" version="1.1" x="0" y="0" viewBox="0 0 62.894000220078716 100" enable-background="new 0 0 62.895 100" xml:space="preserve" width="82.93282905136005" height="131.8612725556674" class="icon-xg-0" data-fill-palette-color="accent" id="xg-0"><path fill="#ffffff" d="M55.303 0H7.591C3.406 0 0 3.403 0 7.589v84.822C0 96.597 3.406 100 7.591 100h47.711c4.186 0 7.592-3.403 7.592-7.589V7.589C62.895 3.403 59.488 0 55.303 0zM58.317 92.411c0 1.66-1.352 3.012-3.015 3.012H7.591c-1.663 0-3.015-1.352-3.015-3.012v-3.015h53.741V92.411zM58.317 84.819H4.577V15.181h53.741V84.819zM58.317 10.604H4.577V7.589c0-1.661 1.352-3.013 3.015-3.013h47.711c1.663 0 3.015 1.352 3.015 3.013V10.604z" data-fill-palette-color="accent"></path><path fill="#ffffff" d="M20.2 56.813c-0.085 0.477-0.143 0.964-0.143 1.464 0 4.541 3.696 8.235 8.237 8.235h8.057 9.518c5.35 0 9.703-4.352 9.703-9.699 0-5.352-4.354-9.705-9.703-9.705-0.103 0-0.203 0.002-0.307 0.004-2.201-2.731-5.546-4.398-9.211-4.398-0.311 0-0.61 0.049-0.917 0.074-2.354-3.784-6.914-5.761-11.332-4.724-2.749 0.637-5.082 2.306-6.572 4.7-1.491 2.393-1.96 5.225-1.321 7.971C16.785 53.214 18.207 55.339 20.2 56.813zM36.351 47.292c3.267 0 6.005 2.159 6.943 5.109 0.762-0.442 1.633-0.716 2.574-0.716 2.831 0 5.126 2.298 5.126 5.129 0 2.827-2.295 5.122-5.126 5.122-1.766 0-7.441 0-9.518 0-1.878 0-6.68 0-8.057 0-2.02 0-3.66-1.638-3.66-3.658 0-2.024 1.64-3.663 3.66-3.663 0.255 0 0.503 0.025 0.742 0.076 0-0.028-0.009-0.051-0.009-0.076C29.027 50.572 32.305 47.292 36.351 47.292zM21.413 45.184c0.845-1.356 2.166-2.302 3.723-2.664 2.072-0.483 4.186 0.179 5.609 1.616-2.599 1.396-4.633 3.718-5.625 6.539-1.059 0.442-1.998 1.11-2.78 1.929-0.809-0.787-1.41-1.77-1.676-2.905C20.303 48.143 20.568 46.539 21.413 45.184z" data-fill-palette-color="accent"></path><path fill="#ffffff" d="M9.509 45.575l2.968 0.9c0.221 0.067 0.445 0.099 0.664 0.099 0.983 0 1.891-0.637 2.19-1.625 0.366-1.209-0.315-2.487-1.526-2.854l-2.968-0.9c-1.211-0.369-2.487 0.319-2.854 1.526C7.616 43.931 8.298 45.208 9.509 45.575z" data-fill-palette-color="accent"></path><path fill="#ffffff" d="M36.684 41.099c0.561 0 1.124-0.206 1.564-0.619l2.264-2.121c0.923-0.863 0.97-2.311 0.104-3.234-0.862-0.92-2.312-0.968-3.233-0.105l-2.264 2.121c-0.923 0.863-0.97 2.311-0.105 3.234C35.463 40.855 36.073 41.099 36.684 41.099z" data-fill-palette-color="accent"></path><path fill="#ffffff" d="M14.738 56.21l-2.262 2.121c-0.923 0.865-0.97 2.313-0.105 3.233 0.451 0.48 1.059 0.725 1.669 0.725 0.561 0 1.124-0.206 1.564-0.619l2.262-2.121c0.923-0.864 0.97-2.312 0.105-3.233S15.657 55.348 14.738 56.21z" data-fill-palette-color="accent"></path><path fill="#ffffff" d="M21.103 35.271c0.244 1.057 1.187 1.77 2.226 1.77 0.172 0 0.346-0.018 0.521-0.06 1.231-0.284 1.996-1.515 1.709-2.747l-0.702-3.021c-0.284-1.231-1.515-2.007-2.747-1.709-1.231 0.284-1.996 1.515-1.709 2.747L21.103 35.271z" data-fill-palette-color="accent"></path></svg></g></svg></g><g id="text-0"><path d="M11.214 90.026l-0.746-0.272 2.284-6.265 0.746 0.273-0.074 2.435 19.237 7.014-0.62 1.701-22.182 7.99 15.486 5.647 1.712-2.288 0.746 0.272-2.325 6.378-0.747-0.272 0.128-2.758-18.15-6.618-1.294 2.579-0.718-0.262 1.85-5.074 20.694-7.344-14.437-5.265z" fill="#ffffff" data-fill-palette-color="primary"></path><path d="M39.408 81.775c-1.158 1.948-2.751 3.127-4.78 3.535-2.031 0.4-4.133-0.046-6.306-1.337-2.173-1.291-3.549-2.959-4.128-5.004-0.573-2.041-0.293-4.015 0.841-5.923 1.134-1.908 2.411-3.079 3.832-3.514 1.421-0.435 2.897-0.197 4.43 0.715v0c0.45 0.267 0.88 0.574 1.291 0.919v0l-5.441 9.155 0.994 0.591c2.115 1.257 3.897 1.907 5.346 1.949 1.443 0.039 2.574-0.631 3.393-2.008v0c1.158-1.948 1.202-3.958 0.132-6.029v0c0.379-0.336 0.701-0.426 0.966-0.268v0c0.473 0.281 0.762 1.041 0.867 2.282v0c0.059 0.597-0.029 1.336-0.265 2.217-0.233 0.891-0.624 1.798-1.172 2.72zM31.103 72.581v0c-0.87-0.517-1.725-0.779-2.563-0.786v0c-1.127-0.007-2.016 0.537-2.667 1.632v0c-1.213 2.04-0.444 4.107 2.305 6.202v0l3.822-6.433c-0.299-0.232-0.598-0.437-0.897-0.615z" fill="#ffffff" data-fill-palette-color="primary"></path><path d="M32.594 63.688l-0.581-0.527 4.562-5.028 0.559 0.507-1.266 1.785 11.692 4.295-3.737-7.316-3.948-1.396-1.024 0.89-0.633-0.574 4.474-4.931 0.558 0.507-1.293 1.814 11.72 4.266-5.457-10.479-1.901 1.167-0.633-0.574 3.723-4.104 0.634 0.575-0.89 1.908 7.05 13.976-0.886 0.976-9.763-3.428 4.533 9.192-0.886 0.976-15.442-5.417z" fill="#ffffff" data-fill-palette-color="primary"></path><path d="M67.586 49.307v0c0.691-0.542 1.144-1.204 1.357-1.985 0.214-0.781-0.033-1.623-0.741-2.525v0c-0.472-0.601-1.139-0.887-2.002-0.858-0.854 0.031-1.813 0.204-2.878 0.519-1.065 0.315-1.789 0.522-2.173 0.618-0.388 0.092-0.933 0.174-1.635 0.247v0c-1.296 0.096-2.364-0.391-3.204-1.462-0.84-1.071-1.115-2.296-0.824-3.674 0.295-1.373 1.255-2.697 2.88-3.971v0c1.039-0.815 2.106-1.281 3.198-1.397 1.094-0.126 1.894 0.133 2.399 0.777 0.501 0.638 0.604 1.269 0.309 1.892v0c-0.163 0.324-0.372 0.585-0.625 0.785-0.253 0.199-0.54 0.338-0.86 0.419v0c-0.176-0.365-0.406-0.73-0.692-1.094-0.281-0.359-0.652-0.652-1.111-0.879v0c-0.784-0.391-1.59-0.261-2.418 0.388-0.834 0.654-1.291 1.375-1.372 2.162-0.081 0.788 0.164 1.546 0.736 2.274v0c0.583 0.744 1.329 1.054 2.237 0.929v0c0.701-0.073 1.49-0.262 2.368-0.566 0.881-0.299 1.486-0.501 1.813-0.605 0.322-0.1 0.781-0.199 1.376-0.299 0.595-0.1 1.09-0.109 1.486-0.028v0c0.997 0.164 1.889 0.746 2.675 1.749 0.786 1.002 1.003 2.208 0.652 3.617-0.346 1.405-1.169 2.617-2.466 3.634-1.298 1.018-2.59 1.712-3.876 2.082-1.296 0.369-2.241 0.173-2.838-0.586v0c-0.559-0.712-0.397-1.593 0.484-2.642v0c1.925 1.813 3.84 1.973 5.745 0.479z" fill="#ffffff" data-fill-palette-color="primary"></path><path d="M103.216 30.104l0.315 0.729-8.171 3.529-0.275-0.637 2.208-1.381-5.675-5.809-6.813 2.943 0.244 7.541 3.035-0.38 0.315 0.729-6.334 2.736-0.315-0.73 1.96-1.777-0.632-21.933 1.487-0.642 16.209 15.819zM84.743 28.168l5.937-2.564-6.151-6.075z" fill="#ffffff" data-fill-palette-color="primary"></path><path d="M107.176 16.976l0.301-0.039c0.389-2.706 2.039-4.399 4.952-5.077v0c1.45-0.338 2.726-0.177 3.829 0.481 1.103 0.659 1.841 1.788 2.214 3.388v0c0.645 2.769 1.341 6.142 2.088 10.119v0l2.25-0.359 0.18 0.774-7.101 1.654-0.18-0.774 1.704-0.531c-0.95-4.88-1.508-7.672-1.672-8.378-0.164-0.705-0.303-1.244-0.418-1.617-0.106-0.368-0.272-0.814-0.498-1.34-0.218-0.521-0.462-0.921-0.734-1.202v0c-0.654-0.681-1.484-0.904-2.49-0.67v0c-1.371 0.319-2.365 1.15-2.982 2.492-0.61 1.34-0.761 2.673-0.453 3.998v0l1.952 8.384 2.447-0.404 0.18 0.774-7.679 1.788-0.181-0.774 2.089-0.651-3.163-13.586-2.763 0.509-0.173-0.744 5.66-1.721z" fill="#ffffff" data-fill-palette-color="primary"></path><path d="M138.502 20.346v0l-0.45-9.06c-1.098-0.758-2.428-1.098-3.988-1.02v0c-1.949 0.097-3.248 0.967-3.898 2.61v0c-0.522 1.389-0.724 3.258-0.607 5.609v0c0.226 4.547 1.568 6.759 4.025 6.637v0c1.386-0.069 2.562-0.658 3.527-1.766 0.972-1.102 1.436-2.105 1.391-3.01zM133.012 26.167v0c-1.888 0.094-3.516-0.5-4.882-1.781-1.36-1.288-2.106-3.279-2.24-5.971-0.134-2.692 0.544-4.854 2.034-6.485 1.496-1.638 3.55-2.523 6.162-2.652v0c1.359-0.068 2.661 0.187 3.904 0.763v0l-0.412-8.297-2.91 0.003-0.068-0.751 6.053-0.996 1.216 24.479 2.809-0.009 0.078 0.751-5.817 0.682-0.086-3.157-0.201 0.01c-0.48 1.011-1.242 1.817-2.286 2.419-1.051 0.603-2.169 0.933-3.354 0.992z" fill="#ffffff" data-fill-palette-color="primary"></path><path d="M159.563 5.227l0.186-0.669 8.583 2.394-0.186 0.668-2.629-0.42 1.278 17.918 7.798-10.291-0.464-5.225-2.36-0.971 0.186-0.669 8.574 2.391-0.187 0.669-2.619-0.417 1.268 17.915 10.404-13.981-2.57-1.605 0.213-0.765 6.646 1.853-0.214 0.766-2.662 0.186-13.231 17.641-1.433-0.4-1.388-15.39-9.385 12.386-1.424-0.397-2.014-22.613z" fill="#ffffff" data-fill-palette-color="primary"></path><path d="M194.227 38.964c-2.028-1.012-3.32-2.515-3.876-4.508-0.547-1.997-0.256-4.126 0.873-6.388 1.129-2.262 2.691-3.756 4.687-4.483 1.993-0.721 3.983-0.586 5.969 0.405 1.986 0.991 3.247 2.179 3.785 3.564 0.538 1.385 0.408 2.875-0.388 4.471v0c-0.234 0.468-0.508 0.919-0.822 1.354v0l-9.529-4.756-0.517 1.035c-1.099 2.202-1.616 4.027-1.552 5.475 0.067 1.442 0.817 2.521 2.251 3.236v0c2.028 1.012 4.035 0.908 6.022-0.31v0c0.363 0.354 0.476 0.668 0.338 0.944v0c-0.245 0.492-0.983 0.836-2.212 1.032v0c-0.591 0.102-1.334 0.068-2.231-0.102-0.906-0.167-1.838-0.49-2.798-0.969zM202.788 30.007v0c0.452-0.906 0.651-1.777 0.597-2.613v0c-0.076-1.124-0.684-1.971-1.824-2.54v0c-2.124-1.06-4.129-0.142-6.016 2.752v0l6.695 3.341c0.21-0.315 0.392-0.628 0.548-0.94z" fill="#ffffff" data-fill-palette-color="primary"></path><path d="M208.457 42.909v0c-0.834 1.159-0.857 2.184-0.068 3.073v0c0.179 0.211 0.366 0.387 0.561 0.528v0c0.675 0.486 1.587 0.704 2.737 0.656 1.148-0.058 2.094-0.562 2.837-1.514v0l1.657-2.302c-3.555-2.509-6.13-2.656-7.724-0.441zM207.218 46.886v0c-1.018-0.732-1.687-1.639-2.007-2.72-0.32-1.081-0.114-2.131 0.617-3.149v0c1.007-1.365 2.436-1.894 4.289-1.585 1.855 0.303 4.051 1.367 6.587 3.192v0l1.656-2.302c1.629-2.264 1.622-3.987-0.021-5.17v0c-0.838-0.603-1.766-0.742-2.785-0.418v0c-0.704 0.22-1.312 0.687-1.825 1.4v0c-0.219 0.305-0.415 0.651-0.587 1.039v0c-0.374 0.003-0.692-0.089-0.953-0.277-0.261-0.188-0.475-0.424-0.642-0.709v0c-0.419-0.623-0.411-1.237 0.024-1.841v0c0.591-0.822 1.375-1.29 2.351-1.407v0c1.59-0.178 3.231 0.343 4.923 1.561 1.698 1.222 2.672 2.468 2.922 3.739 0.246 1.276-0.19 2.692-1.31 4.248v0l-5.833 8.106 2.168 1.722-0.414 0.643-4.702-2.9 1.479-2.554c-1.977 1.014-3.956 0.808-5.937-0.618z" fill="#ffffff" data-fill-palette-color="primary"></path><path d="M228.063 59.375v0c-0.046 0.049-0.106 0.098-0.181 0.147v0c-1 0.54-2.021 0.76-3.062 0.661-1.046-0.094-1.968-0.519-2.767-1.275-0.799-0.756-1.252-1.614-1.359-2.574-0.098-0.96 0.48-2.102 1.734-3.427v0c0.346-0.365 2.901-2.987 7.665-7.866v0l-1.651-1.562 0.587-0.621 1.673 1.583 3.361-3.494 2.345 2.219-3.405 3.452 3.426 3.242-0.587 0.621-3.426-3.242c-4.958 5.084-7.854 8.066-8.688 8.947v0c-1.009 1.067-1.163 1.932-0.462 2.596v0c0.429 0.406 1.112 0.586 2.049 0.541 0.942-0.05 1.804-0.296 2.584-0.74v0c0.321 0.304 0.376 0.568 0.164 0.792z" fill="#ffffff" data-fill-palette-color="primary"></path><path d="M247.111 62.488v0c2.172 2.77 1.927 5.199-0.738 7.289v0c-1.92 1.506-4.666 3.562-8.238 6.168v0l1.32 1.943-0.626 0.49-4.543-5.792 0.625-0.491 1.202 1.32c4.664-3.462 7.484-5.576 8.459-6.341 0.976-0.766 1.566-1.518 1.77-2.257 0.2-0.745-0.05-1.563-0.749-2.455-0.699-0.892-1.78-1.395-3.242-1.509-1.458-0.109-2.54 0.113-3.246 0.668v0l-7.605 5.965 1.214 1.808-0.625 0.49-4.68-5.966 0.625-0.49 1.467 1.609 17.876-14.021-1.677-2.366 0.575-0.489 4.351 4.423c-6.018 4.55-9.23 6.972-9.638 7.266v0l0.161 0.206c1.165-0.155 2.267-0.005 3.305 0.449 1.039 0.455 1.924 1.149 2.657 2.083z" fill="#ffffff" data-fill-palette-color="primary"></path><path d="M243.904 88.031c-1.101-1.981-1.318-3.951-0.651-5.909 0.677-1.956 2.12-3.549 4.329-4.777 2.209-1.228 4.343-1.578 6.401-1.05 2.052 0.531 3.617 1.767 4.696 3.707 1.078 1.94 1.448 3.633 1.109 5.079-0.339 1.446-1.288 2.603-2.847 3.469v0c-0.457 0.254-0.938 0.472-1.443 0.653v0l-5.175-9.308-1.011 0.561c-2.151 1.196-3.609 2.409-4.374 3.64-0.76 1.228-0.75 2.542 0.028 3.943v0c1.101 1.981 2.816 3.03 5.144 3.147v0c0.1 0.497 0.015 0.82-0.255 0.97v0c-0.481 0.267-1.283 0.134-2.408-0.399v0c-0.545-0.249-1.139-0.697-1.783-1.345-0.653-0.65-1.24-1.443-1.76-2.381zM256.028 85.479v0c0.885-0.492 1.541-1.098 1.969-1.819v0c0.573-0.97 0.55-2.012-0.069-3.126v0c-1.153-2.074-3.326-2.451-6.519-1.128v0l3.636 6.54c0.351-0.141 0.679-0.297 0.983-0.467z" fill="#ffffff" data-fill-palette-color="primary"></path><path d="M268.051 101.404v0c0.2 0.534 0.228 1.003 0.086 1.407-0.14 0.41-0.439 0.701-0.898 0.872v0c-0.779 0.291-1.402 0.184-1.87-0.321v0c0.139-0.431 0.047-1.081-0.277-1.947-0.322-0.86-0.914-1.584-1.777-2.17-0.861-0.58-1.653-0.735-2.375-0.465v0l-9.176 3.43 0.888 2.835-0.744 0.278-2.933-7.847 0.744-0.278 0.887 1.998 13.188-4.93-0.789-2.485 0.716-0.268 2.381 5.337-3.876 1.234 0.049 0.132c1.241-0.07 2.43 0.219 3.567 0.868 1.135 0.642 1.871 1.416 2.209 2.32z" fill="#ffffff" data-fill-palette-color="primary"></path><path d="M3.615 144.47c0-5.33 4.321-9.651 9.651-9.651 5.33 0 9.651 4.321 9.652 9.651 0 5.33-4.321 9.651-9.652 9.652-5.33 0-9.651-4.321-9.651-9.652z" fill="#ffffff" data-fill-palette-color="primary"></path><path d="M256.802 144.47c0-5.33 4.321-9.651 9.652-9.651 5.33 0 9.651 4.321 9.651 9.651 0 5.33-4.321 9.651-9.651 9.652-5.33 0-9.651-4.321-9.652-9.652z" fill="#ffffff" data-fill-palette-color="primary"></path></g><g id="text-1"><path d="M38.929 191.424l0.846-0.321 2.713 7.135-0.846 0.321-1.758-2.161-21.951 8.344-0.739-1.946 13.258-23.567-17.682 6.722 0.231 3.269-0.846 0.321-2.77-7.285 0.846-0.322 1.96 2.494 20.719-7.876-0.812-3.21 0.809-0.308 2.205 5.801-12.438 21.878 16.47-6.261z" fill="#ffffff" data-fill-palette-color="secondary"></path><path d="M28.748 223.653c-1.462-2.144-1.912-4.369-1.35-6.675 0.562-2.306 2.042-4.277 4.441-5.913 2.393-1.632 4.79-2.252 7.191-1.86 2.407 0.388 4.328 1.634 5.763 3.74 1.435 2.105 2.034 4.001 1.797 5.688-0.243 1.691-1.206 3.111-2.89 4.259v0c-0.499 0.34-1.028 0.64-1.589 0.901v0l-6.884-10.096-1.088 0.742c-2.338 1.594-3.876 3.134-4.616 4.62-0.743 1.481-0.598 2.98 0.437 4.498v0c1.465 2.149 3.531 3.167 6.197 3.054v0c0.169 0.558 0.107 0.937-0.187 1.137v0c-0.521 0.355-1.451 0.288-2.791-0.203v0c-0.646-0.233-1.371-0.684-2.176-1.352-0.805-0.669-1.556-1.515-2.255-2.54zM42.334 219.478v0c0.958-0.653 1.645-1.414 2.06-2.281v0c0.544-1.166 0.404-2.353-0.419-3.56v0c-1.533-2.249-4.052-2.455-7.555-0.619v0l4.838 7.096c0.385-0.197 0.743-0.409 1.076-0.636z" fill="#ffffff" data-fill-palette-color="secondary"></path><path d="M51.298 223.726l0.597-0.68 5.848 5.138-0.571 0.65-2.073-1.42-4.707 13.495 8.322-4.429 1.53-4.545-1.037-1.166 0.644-0.733 5.734 5.038-0.571 0.65-2.103-1.446-4.677 13.521 11.911-6.456-1.366-2.164 0.644-0.733 4.775 4.195-0.644 0.733-2.215-0.983-15.887 8.346-1.133-0.996 3.747-11.259-10.456 5.365-1.133-0.996 5.925-17.806z" fill="#ffffff" data-fill-palette-color="secondary"></path><path d="M75.727 264.172v0c0.879 0.488 1.778 0.672 2.696 0.552 0.921-0.126 1.7-0.763 2.337-1.912v0c0.426-0.768 0.435-1.599 0.026-2.493-0.418-0.891-1.029-1.828-1.833-2.811-0.813-0.98-1.354-1.656-1.623-2.028-0.272-0.366-0.604-0.902-0.994-1.609v0c-0.675-1.326-0.634-2.671 0.124-4.038 0.758-1.366 1.927-2.201 3.507-2.505 1.583-0.31 3.412 0.111 5.487 1.262v0c1.325 0.735 2.291 1.655 2.898 2.758 0.613 1.107 0.693 2.068 0.241 2.883-0.452 0.815-1.072 1.207-1.86 1.176v0c-0.413-0.03-0.781-0.134-1.103-0.313-0.317-0.176-0.593-0.417-0.829-0.725v0c0.306-0.344 0.587-0.748 0.844-1.21 0.257-0.463 0.403-0.988 0.437-1.575v0c0.067-1.006-0.427-1.801-1.482-2.387-1.061-0.589-2.027-0.749-2.897-0.48-0.87 0.269-1.562 0.866-2.075 1.793v0c-0.527 0.95-0.52 1.877 0.02 2.783v0c0.384 0.704 0.934 1.454 1.65 2.249 0.707 0.799 1.189 1.346 1.446 1.643 0.248 0.299 0.557 0.738 0.925 1.318 0.374 0.583 0.607 1.103 0.698 1.56v0c0.267 1.122 0.044 2.325-0.668 3.609-0.709 1.278-1.883 2.045-3.52 2.302-1.644 0.254-3.292-0.078-4.945-0.995-1.653-0.917-2.961-1.973-3.925-3.167-0.966-1.203-1.18-2.288-0.643-3.255v0c0.501-0.903 1.505-1.124 3.013-0.663v0c-1.061 2.839-0.378 4.931 2.048 6.278z" fill="#ffffff" data-fill-palette-color="secondary"></path><path d="M96.326 272.851v0c-0.509 1.341-1.52 2.399-3.033 3.173-1.507 0.776-2.699 1.188-3.578 1.234v0l-0.268-0.995c0.904-0.116 1.76-0.451 2.566-1.005 0.802-0.563 1.406-1.238 1.811-2.023v0c-0.284 0.05-0.652-0.011-1.103-0.182-0.445-0.169-0.747-0.506-0.907-1.012-0.16-0.505-0.117-1.081 0.128-1.726 0.247-0.652 0.671-1.079 1.272-1.281 0.607-0.2 1.252-0.17 1.935 0.089 0.683 0.259 1.142 0.703 1.378 1.33 0.233 0.633 0.166 1.433-0.201 2.398z" fill="#ffffff" data-fill-palette-color="secondary"></path><path d="M119.254 255.049l-0.002-0.795 10.208-0.024 0.002 0.795-3.026 0.349 6.975 19.383 5.408-13.781-2.125-5.627-2.918-0.335-0.001-0.794 10.207-0.024 0.002 0.794-3.016 0.349 6.965 19.384 7.137-18.663-3.332-0.977-0.002-0.906 7.905-0.018 0.002 0.905-2.864 1.032-9.136 23.586-1.71 0.004-6.314-16.559-6.508 16.589-1.7 0.004-9.25-24.336z" fill="#ffffff" data-fill-palette-color="secondary"></path><path d="M174.599 276.727c-2.519 0.622-4.761 0.268-6.726-1.063-1.966-1.331-3.297-3.405-3.993-6.223-0.695-2.812-0.44-5.275 0.764-7.389 1.203-2.12 3.041-3.486 5.514-4.097 2.473-0.611 4.459-0.511 5.958 0.299 1.5 0.817 2.495 2.215 2.984 4.194v0c0.145 0.586 0.241 1.187 0.29 1.803v0l-11.863 2.931 0.316 1.279c0.679 2.747 1.586 4.726 2.721 5.937 1.128 1.213 2.584 1.599 4.368 1.159v0c2.525-0.624 4.2-2.205 5.023-4.743v0c0.582 0.036 0.916 0.226 1.001 0.571v0c0.151 0.612-0.237 1.46-1.163 2.546v0c-0.444 0.524-1.119 1.047-2.027 1.568-0.907 0.521-1.963 0.93-3.167 1.228zM175.424 262.538v0c-0.278-1.126-0.751-2.035-1.42-2.726v0c-0.903-0.916-2.064-1.199-3.483-0.849v0c-2.643 0.653-3.714 2.941-3.214 6.865v0l8.338-2.06c-0.051-0.429-0.125-0.839-0.221-1.23z" fill="#ffffff" data-fill-palette-color="secondary"></path><path d="M193.513 265.284v0c0.709 1.474 1.731 2.058 3.064 1.751v0c0.307-0.058 0.587-0.149 0.841-0.271v0c0.864-0.416 1.582-1.219 2.155-2.41 0.576-1.185 0.587-2.414 0.033-3.688v0l-1.409-2.927c-4.48 2.208-6.042 4.723-4.684 7.545zM196.84 268.717v0c-1.293 0.622-2.57 0.798-3.832 0.527-1.27-0.274-2.217-1.058-2.839-2.351v0c-0.819-1.764-0.566-3.496 0.758-5.197 1.324-1.701 3.599-3.328 6.826-4.881v0l-1.409-2.927c-1.39-2.888-3.13-3.829-5.22-2.823v0c-1.069 0.515-1.72 1.374-1.951 2.58v0c-0.157 0.834-0.017 1.705 0.419 2.611v0c0.186 0.387 0.428 0.773 0.725 1.158v0c-0.21 0.384-0.481 0.655-0.813 0.815-0.326 0.157-0.683 0.243-1.07 0.258v0c-0.856 0.077-1.47-0.271-1.842-1.044v0c-0.503-1.045-0.543-2.086-0.119-3.124v0c0.689-1.708 2.111-3.081 4.268-4.119 2.163-1.041 3.953-1.333 5.37-0.877 1.421 0.447 2.606 1.659 3.558 3.635v0l4.971 10.33 2.929-1.242 0.412 0.762-5.495 3.147-1.765-2.879c-0.062 2.545-1.356 4.425-3.881 5.641z" fill="#ffffff" data-fill-palette-color="secondary"></path><path d="M222.428 248.151v0c0.043 0.06 0.083 0.139 0.12 0.236v0c0.393 1.237 0.423 2.433 0.089 3.588-0.334 1.156-1.012 2.102-2.037 2.837-1.024 0.735-2.088 1.058-3.192 0.968-1.105-0.09-2.267-0.984-3.488-2.683v0c-0.34-0.474-2.739-3.923-7.196-10.346v0l-2.123 1.525-0.569-0.792 2.156-1.549-3.22-4.535 3.014-2.165 3.155 4.582 4.386-3.151 0.569 0.793-4.386 3.15c4.649 6.691 7.378 10.6 8.187 11.727v0c0.986 1.372 1.928 1.736 2.827 1.091v0c0.555-0.399 0.907-1.134 1.053-2.206 0.151-1.066 0.061-2.087-0.269-3.063v0c0.408-0.293 0.716-0.296 0.924-0.007z" fill="#ffffff" data-fill-palette-color="secondary"></path><path d="M226.439 223.419v0c2.772-2.934 5.571-3.065 8.398-0.394v0c2.032 1.92 4.83 4.684 8.395 8.292v0l1.983-1.821 0.658 0.622-5.795 6.133-0.658-0.622 1.293-1.587c-4.715-4.704-7.591-7.547-8.63-8.528-1.033-0.976-1.987-1.514-2.863-1.612-0.88-0.103-1.767 0.318-2.66 1.264-0.893 0.945-1.278 2.256-1.155 3.931 0.118 1.671 0.553 2.861 1.303 3.57v0l8.056 7.612 1.852-1.682 0.658 0.622-5.975 6.323-0.658-0.622 1.574-1.944-18.94-17.896-2.396 2.316-0.656-0.579 4.278-5.685c6.181 6.052 9.474 9.288 9.879 9.709v0l0.214-0.227c-0.378-1.289-0.397-2.562-0.058-3.819 0.334-1.262 0.969-2.387 1.903-3.376z" fill="#ffffff" data-fill-palette-color="secondary"></path><path d="M256.575 215.03c-1.367 2.205-3.218 3.519-5.554 3.941-2.336 0.422-4.738-0.132-7.205-1.661-2.462-1.526-4.001-3.465-4.617-5.819-0.622-2.357-0.261-4.619 1.081-6.784 1.342-2.166 2.832-3.482 4.471-3.95 1.644-0.464 3.333-0.159 5.065 0.915v0c0.513 0.318 1.002 0.68 1.467 1.087v0l-6.436 10.386 1.119 0.694c2.405 1.49 4.437 2.272 6.095 2.346 1.655 0.079 2.966-0.662 3.934-2.224v0c1.37-2.211 1.463-4.512 0.279-6.903v0c0.441-0.381 0.813-0.478 1.115-0.291v0c0.536 0.332 0.851 1.21 0.947 2.634v0c0.049 0.685-0.069 1.531-0.354 2.538-0.285 1.007-0.754 2.037-1.407 3.091zM247.249 204.305v0c-0.986-0.611-1.959-0.93-2.92-0.958v0c-1.286-0.024-2.315 0.585-3.085 1.827v0c-1.434 2.314-0.601 4.699 2.498 7.157v0l4.525-7.301c-0.336-0.272-0.676-0.513-1.018-0.725z" fill="#ffffff" data-fill-palette-color="secondary"></path><path d="M251.143 180.935v0c0.233-0.614 0.563-1.041 0.99-1.281 0.43-0.246 0.902-0.271 1.417-0.077v0c0.897 0.34 1.357 0.905 1.38 1.695v0c-0.452 0.266-0.866 0.894-1.241 1.885-0.373 0.984-0.405 2.055-0.098 3.211 0.301 1.154 0.866 1.887 1.694 2.201v0l10.505 3.979 1.383-3.111 0.846 0.32-3.402 8.982-0.846-0.32 0.742-2.386-15.104-5.721-1.199 2.739-0.819-0.309 1.987-6.41 4.263 1.862 0.054-0.141c-1.121-0.883-1.926-2.031-2.417-3.443-0.482-1.416-0.527-2.641-0.135-3.675z" fill="#ffffff" data-fill-palette-color="secondary"></path></g></svg></g></svg></g></svg></g></svg></g><defs></defs></svg><rect width="279.72" height="279.72" fill="none" stroke="none" visibility="hidden"></rect></g></svg></g></svg>